<?xml version="1.0" encoding="utf-8"?>
<svg version="1.1" xmlns:xlink="http://www.w3.org/1999/xlink" width="40px" height="40px" xmlns="http://www.w3.org/2000/svg">
  <g transform="matrix(1 0 0 1 -168 -562 )">
    <path d="M 188 562  C 199.2 562  208 570.8  208 582  C 208 593.2  199.2 602  188 602  C 176.8 602  168 593.2  168 582  C 168 570.8  176.8 562  188 562  Z " fill-rule="nonzero" fill="#ffffff" stroke="none" />
    <path d="M 188 562.5  C 198.92 562.5  207.5 571.08  207.5 582  C 207.5 592.92  198.92 601.5  188 601.5  C 177.08 601.5  168.5 592.92  168.5 582  C 168.5 571.08  177.08 562.5  188 562.5  Z " stroke-width="1" stroke="#797979" fill="none" />
  </g>
</svg>